<svg width="52" height="30" viewBox="0 0 52 30" fill="none" xmlns="http://www.w3.org/2000/svg">
<path opacity="0.4" d="M16.7533 25.3133L6.35333 14.9133L16.7533 4.51334C17.7933 3.47334 17.7933 1.82 16.7533 0.78C15.7133 -0.26 14.06 -0.26 13.02 0.78L0.78 13.02C-0.26 14.06 -0.26 15.74 0.78 16.78L13.02 29.0467C14.06 30.0867 15.7133 30.0867 16.7533 29.0467C17.7933 28.0067 17.7933 26.3533 16.7533 25.3133ZM34.3533 25.3133L44.7533 14.9133L34.3533 4.51334C33.3133 3.47334 33.3133 1.82 34.3533 0.78C35.3933 -0.26 37.0467 -0.26 38.0867 0.78L50.3267 13.02C51.3667 14.06 51.3667 15.74 50.3267 16.78L38.0867 29.0467C37.0467 30.0867 35.3933 30.0867 34.3533 29.0467C33.3133 28.0067 33.3133 26.3533 34.3533 25.3133Z" fill="black"/>
</svg>
