<svg width="64" height="64" viewBox="0 0 64 64" fill="none" xmlns="http://www.w3.org/2000/svg">
<g opacity="0.4">
<path d="M42.6667 2.66666H21.3334C16.9067 2.66666 13.3334 6.23999 13.3334 10.6667V53.3333C13.3334 57.76 16.9067 61.3333 21.3334 61.3333H42.6667C47.0934 61.3333 50.6667 57.76 50.6667 53.3333V10.6667C50.6667 6.23999 47.0934 2.66666 42.6667 2.66666ZM36 56H28C27.2534 56 26.6667 55.4133 26.6667 54.6667C26.6667 53.92 27.2534 53.3333 28 53.3333H36C36.7467 53.3333 37.3334 53.92 37.3334 54.6667C37.3334 55.4133 36.7467 56 36 56ZM45.3334 48H18.6667V10.6667H45.3334V48Z" fill="black"/>
</g>
</svg>
