<svg width="54" height="43" viewBox="0 0 54 43" fill="none" xmlns="http://www.w3.org/2000/svg">
<path opacity="0.4" d="M5.4 43C3.915 43 2.6442 42.4741 1.5876 41.4224C0.5292 40.3689 0 39.1031 0 37.625V5.375C0 3.89687 0.5292 2.63196 1.5876 1.58025C2.6442 0.52675 3.915 0 5.4 0H48.6C50.085 0 51.3567 0.52675 52.4151 1.58025C53.4717 2.63196 54 3.89687 54 5.375V37.625C54 39.1031 53.4717 40.3689 52.4151 41.4224C51.3567 42.4741 50.085 43 48.6 43H5.4ZM5.4 37.625H33.75V28.2188H5.4V37.625ZM39.15 37.625H48.6V13.4375H39.15V37.625ZM5.4 22.8438H33.75V13.4375H5.4V22.8438Z" fill="black"/>
</svg>
